<mxfile host="app.diagrams.net" modified="2022-06-09T01:40:50.097Z" agent="5.0 (Windows NT 10.0; Win64; x64) AppleWebKit/537.36 (KHTML, like Gecko) Chrome/102.0.0.0 Safari/537.36" etag="9sScRLjyHDCELv7KeNjy" version="19.0.3" type="github">
  <diagram id="8JU_U9Y3DcdZJbbYmd21" name="Page-1">
    <mxGraphModel dx="1326" dy="663" grid="1" gridSize="10" guides="1" tooltips="1" connect="1" arrows="1" fold="1" page="1" pageScale="1" pageWidth="850" pageHeight="1100" math="0" shadow="0">
      <root>
        <mxCell id="0" />
        <mxCell id="1" parent="0" />
        <mxCell id="NkB1lSJiVC8DAfF1Eu-Q-7" style="edgeStyle=orthogonalEdgeStyle;rounded=0;orthogonalLoop=1;jettySize=auto;html=1;exitX=1;exitY=0.3333333333333333;exitDx=0;exitDy=0;exitPerimeter=0;entryX=0;entryY=0.5;entryDx=0;entryDy=0;" edge="1" parent="1" source="NkB1lSJiVC8DAfF1Eu-Q-1" target="NkB1lSJiVC8DAfF1Eu-Q-4">
          <mxGeometry relative="1" as="geometry" />
        </mxCell>
        <mxCell id="NkB1lSJiVC8DAfF1Eu-Q-1" value="Pessoa" style="shape=umlActor;verticalLabelPosition=bottom;verticalAlign=top;html=1;outlineConnect=0;" vertex="1" parent="1">
          <mxGeometry x="110" y="50" width="30" height="60" as="geometry" />
        </mxCell>
        <mxCell id="NkB1lSJiVC8DAfF1Eu-Q-78" style="edgeStyle=orthogonalEdgeStyle;rounded=0;orthogonalLoop=1;jettySize=auto;html=1;exitX=1;exitY=0.5;exitDx=0;exitDy=0;entryX=0.75;entryY=0;entryDx=0;entryDy=0;" edge="1" parent="1" source="NkB1lSJiVC8DAfF1Eu-Q-4" target="NkB1lSJiVC8DAfF1Eu-Q-44">
          <mxGeometry relative="1" as="geometry" />
        </mxCell>
        <mxCell id="NkB1lSJiVC8DAfF1Eu-Q-4" value="Registrar-se como membro" style="ellipse;whiteSpace=wrap;html=1;" vertex="1" parent="1">
          <mxGeometry x="230" y="30" width="120" height="80" as="geometry" />
        </mxCell>
        <mxCell id="NkB1lSJiVC8DAfF1Eu-Q-14" style="edgeStyle=entityRelationEdgeStyle;rounded=0;orthogonalLoop=1;jettySize=auto;html=1;exitX=1;exitY=0.3333333333333333;exitDx=0;exitDy=0;exitPerimeter=0;entryX=0;entryY=0.5;entryDx=0;entryDy=0;" edge="1" parent="1" source="NkB1lSJiVC8DAfF1Eu-Q-8" target="NkB1lSJiVC8DAfF1Eu-Q-11">
          <mxGeometry relative="1" as="geometry" />
        </mxCell>
        <mxCell id="NkB1lSJiVC8DAfF1Eu-Q-17" style="edgeStyle=entityRelationEdgeStyle;rounded=0;orthogonalLoop=1;jettySize=auto;html=1;exitX=1;exitY=0.3333333333333333;exitDx=0;exitDy=0;exitPerimeter=0;entryX=0;entryY=0.5;entryDx=0;entryDy=0;" edge="1" parent="1" source="NkB1lSJiVC8DAfF1Eu-Q-8" target="NkB1lSJiVC8DAfF1Eu-Q-16">
          <mxGeometry relative="1" as="geometry" />
        </mxCell>
        <mxCell id="NkB1lSJiVC8DAfF1Eu-Q-8" value="Coordenador" style="shape=umlActor;verticalLabelPosition=bottom;verticalAlign=top;html=1;outlineConnect=0;fillColor=#f8cecc;strokeColor=#b85450;" vertex="1" parent="1">
          <mxGeometry x="110" y="635" width="30" height="60" as="geometry" />
        </mxCell>
        <mxCell id="NkB1lSJiVC8DAfF1Eu-Q-79" style="edgeStyle=entityRelationEdgeStyle;rounded=0;orthogonalLoop=1;jettySize=auto;html=1;exitX=1;exitY=0.5;exitDx=0;exitDy=0;entryX=0;entryY=0.25;entryDx=0;entryDy=0;" edge="1" parent="1" source="NkB1lSJiVC8DAfF1Eu-Q-9" target="NkB1lSJiVC8DAfF1Eu-Q-44">
          <mxGeometry relative="1" as="geometry" />
        </mxCell>
        <mxCell id="NkB1lSJiVC8DAfF1Eu-Q-9" value="Cadastrar eventos" style="ellipse;whiteSpace=wrap;html=1;" vertex="1" parent="1">
          <mxGeometry x="230" y="300" width="120" height="80" as="geometry" />
        </mxCell>
        <mxCell id="NkB1lSJiVC8DAfF1Eu-Q-80" style="edgeStyle=entityRelationEdgeStyle;rounded=0;orthogonalLoop=1;jettySize=auto;html=1;exitX=1;exitY=0.5;exitDx=0;exitDy=0;entryX=0;entryY=0;entryDx=0;entryDy=0;" edge="1" parent="1" source="NkB1lSJiVC8DAfF1Eu-Q-10" target="NkB1lSJiVC8DAfF1Eu-Q-44">
          <mxGeometry relative="1" as="geometry" />
        </mxCell>
        <mxCell id="NkB1lSJiVC8DAfF1Eu-Q-10" value="Cadastrar instituição&lt;span style=&quot;color: rgba(0, 0, 0, 0); font-family: monospace; font-size: 0px; text-align: start;&quot;&gt;%3CmxGraphModel%3E%3Croot%3E%3CmxCell%20id%3D%220%22%2F%3E%3CmxCell%20id%3D%221%22%20parent%3D%220%22%2F%3E%3CmxCell%20id%3D%222%22%20value%3D%22Cadastrar%20eventos%22%20style%3D%22ellipse%3BwhiteSpace%3Dwrap%3Bhtml%3D1%3B%22%20vertex%3D%221%22%20parent%3D%221%22%3E%3CmxGeometry%20x%3D%22230%22%20y%3D%22220%22%20width%3D%22120%22%20height%3D%2280%22%20as%3D%22geometry%22%2F%3E%3C%2FmxCell%3E%3C%2Froot%3E%3C%2FmxGraphModel%3E&lt;/span&gt;&lt;span style=&quot;color: rgba(0, 0, 0, 0); font-family: monospace; font-size: 0px; text-align: start;&quot;&gt;%3CmxGraphModel%3E%3Croot%3E%3CmxCell%20id%3D%220%22%2F%3E%3CmxCell%20id%3D%221%22%20parent%3D%220%22%2F%3E%3CmxCell%20id%3D%222%22%20value%3D%22Cadastrar%20eventos%22%20style%3D%22ellipse%3BwhiteSpace%3Dwrap%3Bhtml%3D1%3B%22%20vertex%3D%221%22%20parent%3D%221%22%3E%3CmxGeometry%20x%3D%22230%22%20y%3D%22220%22%20width%3D%22120%22%20height%3D%2280%22%20as%3D%22geometry%22%2F%3E%3C%2FmxCell%3E%3C%2Froot%3E%3C%2FmxGraphModel%3E&lt;/span&gt;" style="ellipse;whiteSpace=wrap;html=1;" vertex="1" parent="1">
          <mxGeometry x="230" y="210" width="120" height="80" as="geometry" />
        </mxCell>
        <mxCell id="NkB1lSJiVC8DAfF1Eu-Q-38" style="edgeStyle=orthogonalEdgeStyle;rounded=0;orthogonalLoop=1;jettySize=auto;html=1;exitX=1;exitY=0.5;exitDx=0;exitDy=0;entryX=0;entryY=0.5;entryDx=0;entryDy=0;" edge="1" parent="1" source="NkB1lSJiVC8DAfF1Eu-Q-11" target="NkB1lSJiVC8DAfF1Eu-Q-37">
          <mxGeometry relative="1" as="geometry" />
        </mxCell>
        <mxCell id="NkB1lSJiVC8DAfF1Eu-Q-11" value="Selecionar comitê de evento" style="ellipse;whiteSpace=wrap;html=1;" vertex="1" parent="1">
          <mxGeometry x="230" y="560" width="120" height="80" as="geometry" />
        </mxCell>
        <mxCell id="NkB1lSJiVC8DAfF1Eu-Q-25" style="edgeStyle=orthogonalEdgeStyle;rounded=0;orthogonalLoop=1;jettySize=auto;html=1;exitX=0.5;exitY=1;exitDx=0;exitDy=0;entryX=1;entryY=0.5;entryDx=0;entryDy=0;" edge="1" parent="1" source="NkB1lSJiVC8DAfF1Eu-Q-15" target="NkB1lSJiVC8DAfF1Eu-Q-21">
          <mxGeometry relative="1" as="geometry" />
        </mxCell>
        <mxCell id="NkB1lSJiVC8DAfF1Eu-Q-35" style="edgeStyle=orthogonalEdgeStyle;rounded=0;orthogonalLoop=1;jettySize=auto;html=1;exitX=1;exitY=0.5;exitDx=0;exitDy=0;entryX=0;entryY=0.5;entryDx=0;entryDy=0;" edge="1" parent="1" source="NkB1lSJiVC8DAfF1Eu-Q-15" target="NkB1lSJiVC8DAfF1Eu-Q-34">
          <mxGeometry relative="1" as="geometry" />
        </mxCell>
        <mxCell id="NkB1lSJiVC8DAfF1Eu-Q-15" value="avaliador é autor ou da mesma instituição que o autor?" style="rhombus;whiteSpace=wrap;html=1;" vertex="1" parent="1">
          <mxGeometry x="400" y="635" width="155" height="130" as="geometry" />
        </mxCell>
        <mxCell id="NkB1lSJiVC8DAfF1Eu-Q-18" style="edgeStyle=orthogonalEdgeStyle;rounded=0;orthogonalLoop=1;jettySize=auto;html=1;exitX=1;exitY=0.5;exitDx=0;exitDy=0;entryX=0;entryY=0.5;entryDx=0;entryDy=0;" edge="1" parent="1" source="NkB1lSJiVC8DAfF1Eu-Q-16" target="NkB1lSJiVC8DAfF1Eu-Q-15">
          <mxGeometry relative="1" as="geometry" />
        </mxCell>
        <mxCell id="NkB1lSJiVC8DAfF1Eu-Q-16" value="selecionar avaliadores do artigo" style="ellipse;whiteSpace=wrap;html=1;" vertex="1" parent="1">
          <mxGeometry x="230" y="660" width="120" height="80" as="geometry" />
        </mxCell>
        <mxCell id="NkB1lSJiVC8DAfF1Eu-Q-28" style="edgeStyle=orthogonalEdgeStyle;rounded=0;orthogonalLoop=1;jettySize=auto;html=1;exitX=0;exitY=0.5;exitDx=0;exitDy=0;entryX=0;entryY=0.3333333333333333;entryDx=0;entryDy=0;entryPerimeter=0;" edge="1" parent="1" source="NkB1lSJiVC8DAfF1Eu-Q-21" target="NkB1lSJiVC8DAfF1Eu-Q-8">
          <mxGeometry relative="1" as="geometry">
            <mxPoint x="120" y="670" as="targetPoint" />
          </mxGeometry>
        </mxCell>
        <mxCell id="NkB1lSJiVC8DAfF1Eu-Q-21" value="recusar avaliador e solicitar outra recomendação" style="rounded=0;whiteSpace=wrap;html=1;" vertex="1" parent="1">
          <mxGeometry x="230" y="760" width="120" height="60" as="geometry" />
        </mxCell>
        <mxCell id="NkB1lSJiVC8DAfF1Eu-Q-31" style="edgeStyle=entityRelationEdgeStyle;rounded=0;orthogonalLoop=1;jettySize=auto;html=1;exitX=1;exitY=0.3333333333333333;exitDx=0;exitDy=0;exitPerimeter=0;entryX=0;entryY=0.5;entryDx=0;entryDy=0;flowAnimation=0;" edge="1" parent="1" source="NkB1lSJiVC8DAfF1Eu-Q-30" target="NkB1lSJiVC8DAfF1Eu-Q-9">
          <mxGeometry relative="1" as="geometry" />
        </mxCell>
        <mxCell id="NkB1lSJiVC8DAfF1Eu-Q-32" style="edgeStyle=entityRelationEdgeStyle;rounded=0;orthogonalLoop=1;jettySize=auto;html=1;exitX=1;exitY=0.3333333333333333;exitDx=0;exitDy=0;exitPerimeter=0;entryX=0;entryY=0.5;entryDx=0;entryDy=0;" edge="1" parent="1" source="NkB1lSJiVC8DAfF1Eu-Q-30" target="NkB1lSJiVC8DAfF1Eu-Q-10">
          <mxGeometry relative="1" as="geometry" />
        </mxCell>
        <mxCell id="NkB1lSJiVC8DAfF1Eu-Q-67" style="edgeStyle=entityRelationEdgeStyle;rounded=0;orthogonalLoop=1;jettySize=auto;html=1;entryX=0;entryY=0.5;entryDx=0;entryDy=0;" edge="1" parent="1" target="NkB1lSJiVC8DAfF1Eu-Q-66">
          <mxGeometry relative="1" as="geometry">
            <mxPoint x="140" y="210" as="sourcePoint" />
          </mxGeometry>
        </mxCell>
        <mxCell id="NkB1lSJiVC8DAfF1Eu-Q-83" style="edgeStyle=entityRelationEdgeStyle;rounded=0;orthogonalLoop=1;jettySize=auto;html=1;exitX=0.5;exitY=0.5;exitDx=0;exitDy=0;exitPerimeter=0;entryX=0;entryY=0.5;entryDx=0;entryDy=0;flowAnimation=0;orthogonal=0;comic=0;startArrow=classic;startFill=1;" edge="1" parent="1" source="NkB1lSJiVC8DAfF1Eu-Q-30" target="NkB1lSJiVC8DAfF1Eu-Q-82">
          <mxGeometry relative="1" as="geometry" />
        </mxCell>
        <mxCell id="NkB1lSJiVC8DAfF1Eu-Q-30" value="Membro" style="shape=umlActor;verticalLabelPosition=bottom;verticalAlign=top;html=1;outlineConnect=0;fillColor=#dae8fc;strokeColor=#6c8ebf;" vertex="1" parent="1">
          <mxGeometry x="110" y="190" width="30" height="60" as="geometry" />
        </mxCell>
        <mxCell id="NkB1lSJiVC8DAfF1Eu-Q-33" value="SIM" style="text;html=1;strokeColor=none;fillColor=none;align=center;verticalAlign=middle;whiteSpace=wrap;rounded=0;" vertex="1" parent="1">
          <mxGeometry x="395" y="760" width="60" height="30" as="geometry" />
        </mxCell>
        <mxCell id="NkB1lSJiVC8DAfF1Eu-Q-55" style="edgeStyle=orthogonalEdgeStyle;rounded=0;orthogonalLoop=1;jettySize=auto;html=1;exitX=0.5;exitY=0;exitDx=0;exitDy=0;entryX=0.5;entryY=0.5;entryDx=0;entryDy=0;entryPerimeter=0;" edge="1" parent="1" source="NkB1lSJiVC8DAfF1Eu-Q-34" target="NkB1lSJiVC8DAfF1Eu-Q-53">
          <mxGeometry relative="1" as="geometry">
            <Array as="points">
              <mxPoint x="690" y="650" />
              <mxPoint x="660" y="650" />
              <mxPoint x="660" y="590" />
            </Array>
          </mxGeometry>
        </mxCell>
        <mxCell id="NkB1lSJiVC8DAfF1Eu-Q-57" style="edgeStyle=orthogonalEdgeStyle;rounded=0;orthogonalLoop=1;jettySize=auto;html=1;exitX=0.5;exitY=0;exitDx=0;exitDy=0;entryX=0.5;entryY=0.5;entryDx=0;entryDy=0;entryPerimeter=0;" edge="1" parent="1" source="NkB1lSJiVC8DAfF1Eu-Q-34" target="NkB1lSJiVC8DAfF1Eu-Q-52">
          <mxGeometry relative="1" as="geometry">
            <Array as="points">
              <mxPoint x="690" y="650" />
              <mxPoint x="780" y="650" />
              <mxPoint x="780" y="590" />
            </Array>
          </mxGeometry>
        </mxCell>
        <mxCell id="NkB1lSJiVC8DAfF1Eu-Q-64" style="edgeStyle=orthogonalEdgeStyle;rounded=0;orthogonalLoop=1;jettySize=auto;html=1;exitX=0.5;exitY=0;exitDx=0;exitDy=0;entryX=0.5;entryY=0.5;entryDx=0;entryDy=0;entryPerimeter=0;" edge="1" parent="1" source="NkB1lSJiVC8DAfF1Eu-Q-34" target="NkB1lSJiVC8DAfF1Eu-Q-51">
          <mxGeometry relative="1" as="geometry">
            <Array as="points">
              <mxPoint x="690" y="650" />
              <mxPoint x="720" y="650" />
              <mxPoint x="720" y="590" />
            </Array>
          </mxGeometry>
        </mxCell>
        <mxCell id="NkB1lSJiVC8DAfF1Eu-Q-34" value="Enviar artigo para avaliadores" style="rounded=0;whiteSpace=wrap;html=1;" vertex="1" parent="1">
          <mxGeometry x="630" y="670" width="120" height="60" as="geometry" />
        </mxCell>
        <mxCell id="NkB1lSJiVC8DAfF1Eu-Q-36" value="NÃO" style="text;html=1;strokeColor=none;fillColor=none;align=center;verticalAlign=middle;whiteSpace=wrap;rounded=0;" vertex="1" parent="1">
          <mxGeometry x="555" y="670" width="60" height="30" as="geometry" />
        </mxCell>
        <mxCell id="NkB1lSJiVC8DAfF1Eu-Q-41" style="edgeStyle=orthogonalEdgeStyle;rounded=0;orthogonalLoop=1;jettySize=auto;html=1;exitX=0.5;exitY=0;exitDx=0;exitDy=0;entryX=0.5;entryY=1;entryDx=0;entryDy=0;" edge="1" parent="1" source="NkB1lSJiVC8DAfF1Eu-Q-37" target="NkB1lSJiVC8DAfF1Eu-Q-39">
          <mxGeometry relative="1" as="geometry" />
        </mxCell>
        <mxCell id="NkB1lSJiVC8DAfF1Eu-Q-37" value="enviar notificação aos membros selecionados" style="rounded=0;whiteSpace=wrap;html=1;" vertex="1" parent="1">
          <mxGeometry x="405" y="570" width="120" height="60" as="geometry" />
        </mxCell>
        <mxCell id="NkB1lSJiVC8DAfF1Eu-Q-42" style="edgeStyle=orthogonalEdgeStyle;rounded=0;orthogonalLoop=1;jettySize=auto;html=1;exitX=0;exitY=0.5;exitDx=0;exitDy=0;entryX=1;entryY=0.5;entryDx=0;entryDy=0;" edge="1" parent="1" source="NkB1lSJiVC8DAfF1Eu-Q-39" target="NkB1lSJiVC8DAfF1Eu-Q-40">
          <mxGeometry relative="1" as="geometry" />
        </mxCell>
        <mxCell id="NkB1lSJiVC8DAfF1Eu-Q-47" style="edgeStyle=orthogonalEdgeStyle;rounded=0;orthogonalLoop=1;jettySize=auto;html=1;exitX=1;exitY=0.5;exitDx=0;exitDy=0;entryX=0;entryY=0.75;entryDx=0;entryDy=0;" edge="1" parent="1" source="NkB1lSJiVC8DAfF1Eu-Q-39" target="NkB1lSJiVC8DAfF1Eu-Q-44">
          <mxGeometry relative="1" as="geometry" />
        </mxCell>
        <mxCell id="NkB1lSJiVC8DAfF1Eu-Q-39" value="Confirmação até prazo limite?" style="rhombus;whiteSpace=wrap;html=1;" vertex="1" parent="1">
          <mxGeometry x="407.5" y="460" width="115" height="90" as="geometry" />
        </mxCell>
        <mxCell id="NkB1lSJiVC8DAfF1Eu-Q-43" style="edgeStyle=orthogonalEdgeStyle;rounded=0;orthogonalLoop=1;jettySize=auto;html=1;exitX=0;exitY=0.5;exitDx=0;exitDy=0;entryX=0;entryY=0.3333333333333333;entryDx=0;entryDy=0;entryPerimeter=0;" edge="1" parent="1" source="NkB1lSJiVC8DAfF1Eu-Q-40" target="NkB1lSJiVC8DAfF1Eu-Q-8">
          <mxGeometry relative="1" as="geometry" />
        </mxCell>
        <mxCell id="NkB1lSJiVC8DAfF1Eu-Q-40" value="solicitar ao coordenador outro membro" style="rounded=0;whiteSpace=wrap;html=1;" vertex="1" parent="1">
          <mxGeometry x="230" y="475" width="120" height="60" as="geometry" />
        </mxCell>
        <mxCell id="NkB1lSJiVC8DAfF1Eu-Q-44" value="armazenar / enviar dados em banco de dados" style="rounded=0;whiteSpace=wrap;html=1;" vertex="1" parent="1">
          <mxGeometry x="630" y="360" width="120" height="60" as="geometry" />
        </mxCell>
        <mxCell id="NkB1lSJiVC8DAfF1Eu-Q-49" value="SIM" style="text;html=1;strokeColor=none;fillColor=none;align=center;verticalAlign=middle;whiteSpace=wrap;rounded=0;" vertex="1" parent="1">
          <mxGeometry x="520" y="475" width="60" height="30" as="geometry" />
        </mxCell>
        <mxCell id="NkB1lSJiVC8DAfF1Eu-Q-50" value="NÃO" style="text;html=1;strokeColor=none;fillColor=none;align=center;verticalAlign=middle;whiteSpace=wrap;rounded=0;" vertex="1" parent="1">
          <mxGeometry x="350" y="475" width="60" height="30" as="geometry" />
        </mxCell>
        <mxCell id="NkB1lSJiVC8DAfF1Eu-Q-61" style="edgeStyle=orthogonalEdgeStyle;rounded=0;orthogonalLoop=1;jettySize=auto;html=1;exitX=0.5;exitY=0;exitDx=0;exitDy=0;exitPerimeter=0;entryX=0.5;entryY=1;entryDx=0;entryDy=0;" edge="1" parent="1" source="NkB1lSJiVC8DAfF1Eu-Q-51" target="NkB1lSJiVC8DAfF1Eu-Q-59">
          <mxGeometry relative="1" as="geometry" />
        </mxCell>
        <mxCell id="NkB1lSJiVC8DAfF1Eu-Q-51" value="avaliador" style="shape=umlActor;verticalLabelPosition=bottom;verticalAlign=top;html=1;outlineConnect=0;fillColor=#d5e8d4;strokeColor=#82b366;" vertex="1" parent="1">
          <mxGeometry x="675" y="560" width="30" height="60" as="geometry" />
        </mxCell>
        <mxCell id="NkB1lSJiVC8DAfF1Eu-Q-62" style="edgeStyle=orthogonalEdgeStyle;rounded=0;orthogonalLoop=1;jettySize=auto;html=1;exitX=0.5;exitY=0;exitDx=0;exitDy=0;exitPerimeter=0;entryX=1;entryY=1;entryDx=0;entryDy=0;" edge="1" parent="1" source="NkB1lSJiVC8DAfF1Eu-Q-52" target="NkB1lSJiVC8DAfF1Eu-Q-59">
          <mxGeometry relative="1" as="geometry" />
        </mxCell>
        <mxCell id="NkB1lSJiVC8DAfF1Eu-Q-52" value="avaliador" style="shape=umlActor;verticalLabelPosition=bottom;verticalAlign=top;html=1;outlineConnect=0;fillColor=#d5e8d4;strokeColor=#82b366;" vertex="1" parent="1">
          <mxGeometry x="730" y="560" width="30" height="60" as="geometry" />
        </mxCell>
        <mxCell id="NkB1lSJiVC8DAfF1Eu-Q-60" style="edgeStyle=orthogonalEdgeStyle;rounded=0;orthogonalLoop=1;jettySize=auto;html=1;exitX=0.5;exitY=0;exitDx=0;exitDy=0;exitPerimeter=0;entryX=0;entryY=1;entryDx=0;entryDy=0;" edge="1" parent="1" source="NkB1lSJiVC8DAfF1Eu-Q-53" target="NkB1lSJiVC8DAfF1Eu-Q-59">
          <mxGeometry relative="1" as="geometry" />
        </mxCell>
        <mxCell id="NkB1lSJiVC8DAfF1Eu-Q-53" value="avaliador" style="shape=umlActor;verticalLabelPosition=bottom;verticalAlign=top;html=1;outlineConnect=0;fillColor=#d5e8d4;strokeColor=#82b366;" vertex="1" parent="1">
          <mxGeometry x="620" y="560" width="30" height="60" as="geometry" />
        </mxCell>
        <mxCell id="NkB1lSJiVC8DAfF1Eu-Q-63" style="edgeStyle=orthogonalEdgeStyle;rounded=0;orthogonalLoop=1;jettySize=auto;html=1;exitX=0.5;exitY=0;exitDx=0;exitDy=0;entryX=0.5;entryY=1;entryDx=0;entryDy=0;" edge="1" parent="1" source="NkB1lSJiVC8DAfF1Eu-Q-59" target="NkB1lSJiVC8DAfF1Eu-Q-44">
          <mxGeometry relative="1" as="geometry" />
        </mxCell>
        <mxCell id="NkB1lSJiVC8DAfF1Eu-Q-85" value="" style="edgeStyle=orthogonalEdgeStyle;curved=1;rounded=0;comic=0;orthogonalLoop=1;jettySize=auto;html=1;startArrow=classic;startFill=1;" edge="1" parent="1" source="NkB1lSJiVC8DAfF1Eu-Q-59" target="NkB1lSJiVC8DAfF1Eu-Q-44">
          <mxGeometry relative="1" as="geometry" />
        </mxCell>
        <mxCell id="NkB1lSJiVC8DAfF1Eu-Q-59" value="enviar avaliação do artigo" style="ellipse;whiteSpace=wrap;html=1;" vertex="1" parent="1">
          <mxGeometry x="630" y="450" width="120" height="80" as="geometry" />
        </mxCell>
        <mxCell id="NkB1lSJiVC8DAfF1Eu-Q-69" style="edgeStyle=entityRelationEdgeStyle;rounded=0;orthogonalLoop=1;jettySize=auto;html=1;exitX=1;exitY=0.5;exitDx=0;exitDy=0;entryX=0;entryY=0.5;entryDx=0;entryDy=0;" edge="1" parent="1" source="NkB1lSJiVC8DAfF1Eu-Q-66" target="NkB1lSJiVC8DAfF1Eu-Q-68">
          <mxGeometry relative="1" as="geometry" />
        </mxCell>
        <mxCell id="NkB1lSJiVC8DAfF1Eu-Q-66" value="submeter artigo" style="ellipse;whiteSpace=wrap;html=1;" vertex="1" parent="1">
          <mxGeometry x="230" y="120" width="120" height="80" as="geometry" />
        </mxCell>
        <mxCell id="NkB1lSJiVC8DAfF1Eu-Q-76" style="edgeStyle=orthogonalEdgeStyle;rounded=0;orthogonalLoop=1;jettySize=auto;html=1;exitX=1;exitY=0.5;exitDx=0;exitDy=0;entryX=0.5;entryY=0;entryDx=0;entryDy=0;" edge="1" parent="1" source="NkB1lSJiVC8DAfF1Eu-Q-68" target="NkB1lSJiVC8DAfF1Eu-Q-44">
          <mxGeometry relative="1" as="geometry" />
        </mxCell>
        <mxCell id="NkB1lSJiVC8DAfF1Eu-Q-81" style="edgeStyle=orthogonalEdgeStyle;rounded=0;orthogonalLoop=1;jettySize=auto;html=1;exitX=0.5;exitY=0;exitDx=0;exitDy=0;entryX=0.5;entryY=1;entryDx=0;entryDy=0;" edge="1" parent="1" source="NkB1lSJiVC8DAfF1Eu-Q-68" target="NkB1lSJiVC8DAfF1Eu-Q-72">
          <mxGeometry relative="1" as="geometry" />
        </mxCell>
        <mxCell id="NkB1lSJiVC8DAfF1Eu-Q-68" value="tema condiz com evento?" style="rhombus;whiteSpace=wrap;html=1;" vertex="1" parent="1">
          <mxGeometry x="560" y="220" width="90" height="80" as="geometry" />
        </mxCell>
        <mxCell id="NkB1lSJiVC8DAfF1Eu-Q-71" value="SIM" style="text;html=1;strokeColor=none;fillColor=none;align=center;verticalAlign=middle;whiteSpace=wrap;rounded=0;" vertex="1" parent="1">
          <mxGeometry x="640" y="225" width="60" height="30" as="geometry" />
        </mxCell>
        <mxCell id="NkB1lSJiVC8DAfF1Eu-Q-72" value="recusar artigo" style="rounded=0;whiteSpace=wrap;html=1;" vertex="1" parent="1">
          <mxGeometry x="545" y="110" width="120" height="60" as="geometry" />
        </mxCell>
        <mxCell id="NkB1lSJiVC8DAfF1Eu-Q-74" value="NÃO" style="text;html=1;strokeColor=none;fillColor=none;align=center;verticalAlign=middle;whiteSpace=wrap;rounded=0;" vertex="1" parent="1">
          <mxGeometry x="555" y="185" width="60" height="30" as="geometry" />
        </mxCell>
        <mxCell id="NkB1lSJiVC8DAfF1Eu-Q-84" style="edgeStyle=entityRelationEdgeStyle;rounded=0;orthogonalLoop=1;jettySize=auto;html=1;exitX=1;exitY=0.5;exitDx=0;exitDy=0;entryX=0;entryY=0.5;entryDx=0;entryDy=0;startArrow=classic;startFill=1;" edge="1" parent="1" source="NkB1lSJiVC8DAfF1Eu-Q-82" target="NkB1lSJiVC8DAfF1Eu-Q-44">
          <mxGeometry relative="1" as="geometry" />
        </mxCell>
        <mxCell id="NkB1lSJiVC8DAfF1Eu-Q-82" value="consiltar dados" style="ellipse;whiteSpace=wrap;html=1;" vertex="1" parent="1">
          <mxGeometry x="230" y="390" width="120" height="80" as="geometry" />
        </mxCell>
      </root>
    </mxGraphModel>
  </diagram>
</mxfile>
